<svg width="614" height="101" viewBox="0 0 614 101" fill="none" xmlns="http://www.w3.org/2000/svg">
<g filter="url(#filter0_d_34_18)">
<ellipse cx="48.2865" cy="87.724" rx="2.13592" ry="2.30216" fill="black"/>
<ellipse cx="70.9807" cy="13.7672" rx="2.40291" ry="2.58993" fill="black"/>
<ellipse cx="76.8545" cy="25.278" rx="2.40291" ry="2.58993" fill="black"/>
<ellipse cx="82.7281" cy="39.0909" rx="2.40291" ry="2.58993" fill="black"/>
<ellipse cx="88.3349" cy="49.1629" rx="2.6699" ry="2.8777" fill="black"/>
<ellipse cx="82.9951" cy="60.0981" rx="2.6699" ry="2.8777" fill="black"/>
<ellipse cx="71.2477" cy="60.0981" rx="2.6699" ry="2.8777" fill="black"/>
<ellipse cx="88.3349" cy="28.4434" rx="2.6699" ry="2.8777" fill="black"/>
<ellipse cx="96.6117" cy="37.3643" rx="2.93689" ry="3.16547" fill="black"/>
<ellipse cx="99.8156" cy="49.4506" rx="2.93689" ry="3.16547" fill="black"/>
<ellipse cx="96.6117" cy="62.1125" rx="2.93689" ry="3.16547" fill="black"/>
<ellipse cx="88.6019" cy="70.7456" rx="3.47087" ry="3.74101" fill="black"/>
<ellipse cx="76.8544" cy="74.1988" rx="3.47087" ry="3.74101" fill="black"/>
<ellipse cx="65.3738" cy="71.0334" rx="3.73786" ry="4.02878" fill="black"/>
<ellipse cx="57.0972" cy="62.1125" rx="4.00485" ry="4.31655" fill="black"/>
<ellipse cx="82.9951" cy="13.4794" rx="2.6699" ry="2.8777" fill="black"/>
<ellipse cx="93.9417" cy="17.796" rx="2.93689" ry="3.16547" fill="black"/>
<ellipse cx="103.286" cy="25.5657" rx="3.20388" ry="3.45324" fill="black"/>
<ellipse cx="109.16" cy="37.0765" rx="3.20388" ry="3.45324" fill="black"/>
<ellipse cx="111.029" cy="50.0262" rx="3.47087" ry="3.74101" fill="black"/>
<ellipse cx="108.893" cy="62.688" rx="3.47087" ry="3.74101" fill="black"/>
<ellipse cx="103.286" cy="73.3355" rx="3.73786" ry="4.02878" fill="black"/>
<ellipse cx="94.2087" cy="81.393" rx="3.73786" ry="4.02878" fill="black"/>
<ellipse cx="83.2621" cy="85.7096" rx="4.00485" ry="4.31655" fill="black"/>
<ellipse cx="70.7136" cy="85.9974" rx="4.27184" ry="4.60432" fill="black"/>
<ellipse cx="59.5" cy="81.3931" rx="4.27184" ry="4.60432" fill="black"/>
<ellipse cx="51.2233" cy="73.6232" rx="4.53884" ry="4.89209" fill="black"/>
<ellipse cx="45.6166" cy="62.4003" rx="4.80583" ry="5.17986" fill="black"/>
<ellipse cx="35.7378" cy="87.4362" rx="2.40291" ry="2.58993" fill="black"/>
<ellipse cx="24.7913" cy="83.1196" rx="2.6699" ry="2.8777" fill="black"/>
<ellipse cx="15.9805" cy="75.3499" rx="2.93689" ry="3.16547" fill="black"/>
<ellipse cx="10.3738" cy="64.1268" rx="3.20388" ry="3.45324" fill="black"/>
<ellipse cx="7.70388" cy="51.465" rx="3.20388" ry="3.45324" fill="black"/>
<ellipse cx="9.83984" cy="38.2276" rx="3.20388" ry="3.45324" fill="black"/>
<ellipse cx="15.9806" cy="27.5801" rx="3.47087" ry="3.74101" fill="black"/>
<ellipse cx="24.7913" cy="19.8103" rx="3.73786" ry="4.02878" fill="black"/>
<ellipse cx="36.2719" cy="14.9182" rx="4.00485" ry="4.31655" fill="black"/>
<ellipse cx="48.0194" cy="14.9182" rx="4.00485" ry="4.31655" fill="black"/>
<ellipse cx="59.233" cy="19.5225" rx="4.00485" ry="4.31655" fill="black"/>
<ellipse cx="68.3107" cy="27.5801" rx="4.53884" ry="4.89209" fill="black"/>
<ellipse cx="74.1845" cy="38.5153" rx="4.53884" ry="4.89209" fill="black"/>
<ellipse cx="76.0534" cy="51.465" rx="4.80583" ry="5.17986" fill="black"/>
<ellipse cx="41.8787" cy="75.6377" rx="2.13592" ry="2.30216" fill="black"/>
<ellipse cx="36.0049" cy="61.8247" rx="2.13592" ry="2.30216" fill="black"/>
<ellipse cx="36.0049" cy="61.8247" rx="2.13592" ry="2.30216" fill="black"/>
<ellipse cx="42.1457" cy="51.1773" rx="2.40291" ry="2.58993" fill="black"/>
<ellipse cx="30.3981" cy="51.1773" rx="2.40291" ry="2.58993" fill="black"/>
<ellipse cx="30.6651" cy="72.76" rx="2.6699" ry="2.8777" fill="black"/>
<ellipse cx="22.9223" cy="63.8391" rx="2.93689" ry="3.16547" fill="black"/>
<ellipse cx="19.1845" cy="51.1772" rx="2.93689" ry="3.16547" fill="black"/>
<ellipse cx="22.6554" cy="39.3787" rx="3.20388" ry="3.45324" fill="black"/>
<ellipse cx="30.6651" cy="30.17" rx="3.20388" ry="3.45324" fill="black"/>
<ellipse cx="42.1456" cy="27.0046" rx="3.47087" ry="3.74101" fill="black"/>
<ellipse cx="53.6262" cy="30.17" rx="3.73786" ry="4.02878" fill="black"/>
<ellipse cx="61.6359" cy="38.8031" rx="3.73786" ry="4.02878" fill="black"/>
<ellipse cx="65.1068" cy="51.1772" rx="4.00485" ry="4.31655" fill="black"/>
<ellipse cx="36.5389" cy="40.5297" rx="2.6699" ry="2.8777" fill="black"/>
<ellipse cx="48.0195" cy="40.8175" rx="2.93689" ry="3.16547" fill="black"/>
<ellipse cx="53.3593" cy="51.1772" rx="2.93689" ry="3.16547" fill="black"/>
</g>
<path d="M149.46 49.0617L162.18 66.1017H154.26L143.22 51.2217H134.82V66.1017H127.86V32.5017H134.82V47.6217H142.74L153.78 32.5017H161.46L149.46 49.0617ZM173.694 63.9417C174.718 63.9417 175.678 63.7497 176.574 63.3657C177.47 62.9817 178.254 62.3897 178.926 61.5897C179.598 60.7577 180.126 59.6857 180.51 58.3737C180.926 57.0617 181.134 55.4777 181.134 53.6217C181.134 51.7657 180.926 50.1817 180.51 48.8697C180.126 47.5577 179.598 46.5017 178.926 45.7017C178.254 44.8697 177.47 44.2617 176.574 43.8777C175.678 43.4937 174.718 43.3017 173.694 43.3017C172.67 43.3017 171.71 43.4937 170.814 43.8777C169.918 44.2617 169.134 44.8697 168.462 45.7017C167.79 46.5017 167.246 47.5577 166.83 48.8697C166.446 50.1817 166.254 51.7657 166.254 53.6217C166.254 55.4777 166.446 57.0617 166.83 58.3737C167.246 59.6857 167.79 60.7577 168.462 61.5897C169.134 62.3897 169.918 62.9817 170.814 63.3657C171.71 63.7497 172.67 63.9417 173.694 63.9417ZM173.694 40.1817C175.838 40.1817 177.806 40.4857 179.598 41.0937C181.422 41.6697 182.974 42.5337 184.254 43.6857C185.534 44.8057 186.526 46.2137 187.23 47.9097C187.966 49.5737 188.334 51.4777 188.334 53.6217C188.334 55.7977 187.966 57.7177 187.23 59.3817C186.526 61.0457 185.534 62.4537 184.254 63.6057C182.974 64.7257 181.422 65.5737 179.598 66.1497C177.806 66.7577 175.838 67.0617 173.694 67.0617C171.518 67.0617 169.534 66.7577 167.742 66.1497C165.95 65.5737 164.414 64.7257 163.134 63.6057C161.854 62.4537 160.846 61.0457 160.11 59.3817C159.406 57.7177 159.054 55.7977 159.054 53.6217C159.054 51.4777 159.406 49.5737 160.11 47.9097C160.846 46.2137 161.854 44.8057 163.134 43.6857C164.414 42.5337 165.95 41.6697 167.742 41.0937C169.534 40.4857 171.518 40.1817 173.694 40.1817ZM208.264 61.7817L216.184 41.1417H226.024V66.1017H219.304V47.8617H218.824L211.864 66.1017H204.232L197.224 47.8617H196.744V66.1017H190.024V41.1417H199.864L207.784 61.7817H208.264ZM255.287 41.1417V66.1017H248.567V44.5017H235.607V66.1017H228.887V41.1417H255.287ZM271.628 63.9417C272.652 63.9417 273.612 63.7497 274.508 63.3657C275.404 62.9817 276.188 62.3897 276.86 61.5897C277.532 60.7577 278.06 59.6857 278.444 58.3737C278.859 57.0617 279.067 55.4777 279.067 53.6217C279.067 51.7657 278.859 50.1817 278.444 48.8697C278.06 47.5577 277.532 46.5017 276.86 45.7017C276.188 44.8697 275.404 44.2617 274.508 43.8777C273.612 43.4937 272.652 43.3017 271.628 43.3017C270.604 43.3017 269.644 43.4937 268.748 43.8777C267.852 44.2617 267.068 44.8697 266.395 45.7017C265.724 46.5017 265.18 47.5577 264.764 48.8697C264.379 50.1817 264.187 51.7657 264.187 53.6217C264.187 55.4777 264.379 57.0617 264.764 58.3737C265.18 59.6857 265.724 60.7577 266.395 61.5897C267.068 62.3897 267.852 62.9817 268.748 63.3657C269.644 63.7497 270.604 63.9417 271.628 63.9417ZM271.628 40.1817C273.772 40.1817 275.74 40.4857 277.532 41.0937C279.356 41.6697 280.908 42.5337 282.188 43.6857C283.468 44.8057 284.46 46.2137 285.164 47.9097C285.9 49.5737 286.268 51.4777 286.268 53.6217C286.268 55.7977 285.9 57.7177 285.164 59.3817C284.46 61.0457 283.468 62.4537 282.188 63.6057C280.908 64.7257 279.356 65.5737 277.532 66.1497C275.74 66.7577 273.772 67.0617 271.628 67.0617C269.451 67.0617 267.467 66.7577 265.675 66.1497C263.883 65.5737 262.347 64.7257 261.067 63.6057C259.787 62.4537 258.779 61.0457 258.043 59.3817C257.339 57.7177 256.987 55.7977 256.987 53.6217C256.987 51.4777 257.339 49.5737 258.043 47.9097C258.779 46.2137 259.787 44.8057 261.067 43.6857C262.347 42.5337 263.883 41.6697 265.675 41.0937C267.467 40.4857 269.451 40.1817 271.628 40.1817ZM314.357 41.1417V66.1017H307.637V55.0617H294.677V66.1017H287.957V41.1417H294.677V51.7017H307.637V41.1417H314.357ZM331.658 63.7017C333.226 63.7017 334.682 63.4297 336.026 62.8857C337.402 62.3417 338.746 61.5737 340.058 60.5817L341.978 63.4617C341.37 64.0057 340.65 64.5017 339.818 64.9497C339.018 65.3977 338.138 65.7817 337.178 66.1017C336.25 66.3897 335.274 66.6137 334.25 66.7737C333.226 66.9657 332.202 67.0617 331.178 67.0617C328.906 67.0617 326.826 66.7577 324.938 66.1497C323.082 65.5737 321.498 64.7257 320.186 63.6057C318.874 62.4537 317.85 61.0457 317.114 59.3817C316.41 57.7177 316.058 55.7977 316.058 53.6217C316.058 51.4777 316.394 49.5737 317.066 47.9097C317.77 46.2137 318.73 44.8057 319.946 43.6857C321.194 42.5337 322.666 41.6697 324.362 41.0937C326.058 40.4857 327.93 40.1817 329.978 40.1817C331.898 40.1817 333.706 40.4697 335.402 41.0457C337.098 41.6217 338.57 42.4697 339.818 43.5897C341.066 44.6777 342.058 46.0057 342.794 47.5737C343.53 49.1417 343.898 50.9177 343.898 52.9017V56.2617H323.402C323.786 58.9177 324.698 60.8217 326.138 61.9737C327.61 63.1257 329.45 63.7017 331.658 63.7017ZM329.978 43.3017C329.05 43.3017 328.186 43.4777 327.386 43.8297C326.586 44.1817 325.882 44.7417 325.274 45.5097C324.698 46.2777 324.218 47.2697 323.834 48.4857C323.482 49.7017 323.29 51.1737 323.258 52.9017H336.698C336.698 51.2377 336.506 49.7977 336.122 48.5817C335.738 47.3657 335.226 46.3737 334.586 45.6057C333.978 44.8057 333.258 44.2297 332.426 43.8777C331.626 43.4937 330.81 43.3017 329.978 43.3017ZM371.974 41.1417V66.1017H365.254V55.0617H352.294V66.1017H345.574V41.1417H352.294V51.7017H365.254V41.1417H371.974ZM398.874 44.5017H388.794V66.1017H382.074V44.5017H371.994V41.1417H398.874V44.5017ZM423.819 63.4617C425.579 63.4617 427.195 63.2217 428.667 62.7417C430.139 62.2297 431.419 61.4777 432.507 60.4857C433.627 59.4617 434.523 58.1657 435.195 56.5977C435.867 55.0297 436.283 53.1577 436.443 50.9817H418.347V47.3817H436.443C436.283 45.2697 435.867 43.4457 435.195 41.9097C434.523 40.3737 433.643 39.1097 432.555 38.1177C431.499 37.0937 430.267 36.3417 428.859 35.8617C427.451 35.3817 425.931 35.1417 424.299 35.1417C422.123 35.1417 420.027 35.5257 418.011 36.2937C416.027 37.0297 414.123 38.2457 412.299 39.9417L409.899 37.0617C411.723 35.3657 413.931 34.0217 416.523 33.0297C419.115 32.0377 421.867 31.5417 424.779 31.5417C427.659 31.5417 430.267 31.9257 432.603 32.6937C434.971 33.4617 436.987 34.5977 438.651 36.1017C440.347 37.6057 441.659 39.4617 442.587 41.6697C443.515 43.8777 443.979 46.4217 443.979 49.3017C443.979 52.1817 443.515 54.7257 442.587 56.9337C441.659 59.1417 440.331 60.9977 438.603 62.5017C436.907 64.0057 434.843 65.1417 432.411 65.9097C430.011 66.6777 427.307 67.0617 424.299 67.0617C421.387 67.0617 418.635 66.5657 416.043 65.5737C413.451 64.5817 411.243 63.2377 409.419 61.5417L411.819 58.6617C413.643 60.3577 415.547 61.5897 417.531 62.3577C419.547 63.0937 421.643 63.4617 423.819 63.4617ZM472.301 41.1417V66.1017H465.581V55.0617H452.621V66.1017H445.901V41.1417H452.621V51.7017H465.581V41.1417H472.301ZM489.602 63.7017C491.17 63.7017 492.626 63.4297 493.97 62.8857C495.346 62.3417 496.69 61.5737 498.002 60.5817L499.922 63.4617C499.314 64.0057 498.594 64.5017 497.762 64.9497C496.962 65.3977 496.082 65.7817 495.122 66.1017C494.194 66.3897 493.218 66.6137 492.194 66.7737C491.17 66.9657 490.146 67.0617 489.122 67.0617C486.85 67.0617 484.77 66.7577 482.882 66.1497C481.026 65.5737 479.442 64.7257 478.13 63.6057C476.818 62.4537 475.794 61.0457 475.058 59.3817C474.354 57.7177 474.002 55.7977 474.002 53.6217C474.002 51.4777 474.338 49.5737 475.01 47.9097C475.714 46.2137 476.674 44.8057 477.89 43.6857C479.138 42.5337 480.61 41.6697 482.306 41.0937C484.002 40.4857 485.874 40.1817 487.922 40.1817C489.842 40.1817 491.65 40.4697 493.346 41.0457C495.042 41.6217 496.514 42.4697 497.762 43.5897C499.01 44.6777 500.002 46.0057 500.738 47.5737C501.474 49.1417 501.842 50.9177 501.842 52.9017V56.2617H481.346C481.73 58.9177 482.642 60.8217 484.082 61.9737C485.554 63.1257 487.394 63.7017 489.602 63.7017ZM487.922 43.3017C486.994 43.3017 486.13 43.4777 485.33 43.8297C484.53 44.1817 483.826 44.7417 483.218 45.5097C482.642 46.2777 482.162 47.2697 481.778 48.4857C481.426 49.7017 481.234 51.1737 481.202 52.9017H494.642C494.642 51.2377 494.45 49.7977 494.066 48.5817C493.682 47.3657 493.17 46.3737 492.53 45.6057C491.922 44.8057 491.202 44.2297 490.37 43.8777C489.57 43.4937 488.754 43.3017 487.922 43.3017ZM510.238 44.5017V62.7417H516.238C517.326 62.7417 518.318 62.5817 519.214 62.2617C520.142 61.9097 520.926 61.3657 521.566 60.6297C522.238 59.8937 522.75 58.9497 523.102 57.7977C523.486 56.6457 523.678 55.2537 523.678 53.6217C523.678 51.9897 523.486 50.5977 523.102 49.4457C522.75 48.2937 522.238 47.3497 521.566 46.6137C520.926 45.8777 520.142 45.3497 519.214 45.0297C518.318 44.6777 517.326 44.5017 516.238 44.5017H510.238ZM516.238 41.1417C518.446 41.1417 520.446 41.4297 522.238 42.0057C524.062 42.5817 525.614 43.4137 526.894 44.5017C528.174 45.5897 529.15 46.9017 529.822 48.4377C530.526 49.9737 530.878 51.7017 530.878 53.6217C530.878 55.5417 530.526 57.2697 529.822 58.8057C529.15 60.3417 528.174 61.6537 526.894 62.7417C525.614 63.8297 524.062 64.6617 522.238 65.2377C520.446 65.8137 518.446 66.1017 516.238 66.1017H510.238V74.7417H503.518V41.1417H516.238ZM552.697 44.5017H539.257V66.1017H532.537V41.1417H552.697V44.5017ZM579.577 41.1417V66.1017H572.857V47.3817H572.377L561.337 66.1017H552.697V41.1417H559.417V59.8617H559.897L570.937 41.1417H579.577ZM609.347 41.1417V66.1017H602.627V47.3817H602.147L591.107 66.1017H582.467V41.1417H589.187V59.8617H589.667L600.707 41.1417H609.347Z" fill="black"/>
<defs>
<filter id="filter0_d_34_18" x="0.5" y="10.6017" width="118" height="88" filterUnits="userSpaceOnUse" color-interpolation-filters="sRGB">
<feFlood flood-opacity="0" result="BackgroundImageFix"/>
<feColorMatrix in="SourceAlpha" type="matrix" values="0 0 0 0 0 0 0 0 0 0 0 0 0 0 0 0 0 0 127 0" result="hardAlpha"/>
<feOffset dy="4"/>
<feGaussianBlur stdDeviation="2"/>
<feComposite in2="hardAlpha" operator="out"/>
<feColorMatrix type="matrix" values="0 0 0 0 0 0 0 0 0 0 0 0 0 0 0 0 0 0 0.25 0"/>
<feBlend mode="normal" in2="BackgroundImageFix" result="effect1_dropShadow_34_18"/>
<feBlend mode="normal" in="SourceGraphic" in2="effect1_dropShadow_34_18" result="shape"/>
</filter>
</defs>
</svg>
