<svg width="99" height="99" viewBox="0 0 99 99" fill="none" xmlns="http://www.w3.org/2000/svg">
<g clip-path="url(#clip0_18_4)">
<path d="M49.312 0C22.078 0 0 22.078 0 49.312C0 76.546 22.078 98.624 49.312 98.624C76.546 98.624 98.624 76.546 98.624 49.312C98.624 22.078 76.546 0 49.312 0ZM77.051 22.919L66.01 74.771C65.803 75.789 64.643 76.288 63.762 75.736L46.783 64.475L37.852 72.786C37.057 73.466 35.826 73.135 35.48 72.147L29.665 53.807L14.05 47.403C12.852 46.857 12.869 44.949 14.097 44.472L75.053 21.235C76.151 20.809 77.285 21.765 77.051 22.919Z" fill="#696D70"/>
<path d="M37.356 66.708L38.348 57.28L65.886 30.362L32.642 52.194L37.356 66.708Z" fill="#696D70"/>
</g>
<defs>
<clipPath id="clip0_18_4">
<rect width="98.624" height="98.624" fill="white"/>
</clipPath>
</defs>
</svg>
