<svg width="100" height="99" viewBox="0 0 100 99" fill="none" xmlns="http://www.w3.org/2000/svg">
<g clip-path="url(#clip0_37_22)">
<path d="M51.944 20.882C38.204 20.882 27.03 32.055 27.025 45.789C27.023 50.496 28.34 55.079 30.833 59.045L31.425 59.987L28.909 69.179L38.336 66.706L39.246 67.246C43.07 69.516 47.454 70.716 51.924 70.718H51.934C65.663 70.718 76.837 59.544 76.843 45.809C76.846 39.153 74.257 32.895 69.554 28.187C64.851 23.478 58.597 20.884 51.944 20.882ZM66.596 56.498C65.972 58.247 62.98 59.844 61.542 60.058C60.252 60.251 58.619 60.331 56.826 59.761C55.739 59.416 54.344 58.955 52.557 58.184C45.044 54.941 40.138 47.377 39.764 46.878C39.39 46.378 36.706 42.818 36.706 39.132C36.706 35.446 38.64 33.635 39.327 32.885C40.013 32.135 40.825 31.948 41.324 31.948C41.823 31.948 42.323 31.953 42.759 31.974C43.219 31.997 43.836 31.8 44.444 33.259C45.068 34.759 46.566 38.444 46.753 38.819C46.94 39.194 47.065 39.631 46.815 40.131C46.565 40.63 46.441 40.943 46.066 41.38C45.691 41.817 45.28 42.356 44.943 42.692C44.568 43.065 44.178 43.471 44.615 44.22C45.052 44.97 46.555 47.422 48.781 49.407C51.641 51.958 54.054 52.749 54.803 53.124C55.552 53.499 55.989 53.436 56.425 52.937C56.862 52.437 58.297 50.75 58.796 50.001C59.295 49.252 59.794 49.376 60.481 49.626C61.167 49.876 64.849 51.687 65.598 52.062C66.347 52.437 66.846 52.624 67.033 52.937C67.22 53.249 67.22 54.749 66.596 56.498Z" fill="black"/>
<path d="M49.936 0C22.702 0 0.624023 22.078 0.624023 49.312C0.624023 76.546 22.702 98.624 49.936 98.624C77.17 98.624 99.248 76.546 99.248 49.312C99.248 22.078 77.17 0 49.936 0ZM51.934 75.779C51.935 75.779 51.933 75.779 51.934 75.779H51.922C46.906 75.777 41.978 74.519 37.601 72.131L21.714 76.299L25.966 60.769C23.343 56.224 21.963 51.068 21.966 45.787C21.971 29.263 35.416 15.82 51.934 15.82C59.951 15.823 67.476 18.944 73.134 24.609C78.792 30.273 81.907 37.803 81.903 45.811C81.896 62.335 68.451 75.779 51.934 75.779Z" fill="black"/>
</g>
<defs>
<clipPath id="clip0_37_22">
<rect width="98.624" height="98.624" fill="white" transform="translate(0.624023)"/>
</clipPath>
</defs>
</svg>
