<svg width="99" height="99" viewBox="0 0 99 99" fill="none" xmlns="http://www.w3.org/2000/svg">
<g clip-path="url(#clip0_37_27)">
<path d="M49.56 0C22.326 0 0.248047 22.078 0.248047 49.312C0.248047 76.546 22.326 98.624 49.56 98.624C76.794 98.624 98.872 76.546 98.872 49.312C98.872 22.078 76.794 0 49.56 0ZM79.059 28.881C79.081 28.881 79.1 28.893 79.122 28.894L51.605 56.411C50.688 57.328 49.064 57.33 48.147 56.409L20.619 28.881H79.059ZM18.7 30.722C18.7 30.707 18.708 30.695 18.708 30.681L37.413 49.386L18.7 68.099V30.722ZM20.541 70.257C20.456 70.257 20.383 70.22 20.301 70.209L39.268 51.242L46.291 58.265C47.246 59.22 48.519 59.745 49.876 59.745C51.234 59.745 52.505 59.218 53.46 58.265L60.256 51.469L79.044 70.257H20.541ZM80.9 68.402L62.112 49.614L80.9 30.827V68.402Z" fill="black"/>
</g>
<defs>
<clipPath id="clip0_37_27">
<rect width="98.624" height="98.624" fill="white" transform="translate(0.248047)"/>
</clipPath>
</defs>
</svg>
