<svg width="99" height="99" viewBox="0 0 99 99" fill="none" xmlns="http://www.w3.org/2000/svg">
<g clip-path="url(#clip0_18_12)">
<path d="M51.32 20.882C37.58 20.882 26.406 32.055 26.401 45.789C26.399 50.496 27.716 55.079 30.209 59.045L30.801 59.987L28.285 69.179L37.712 66.706L38.622 67.246C42.446 69.516 46.83 70.716 51.3 70.718H51.31C65.039 70.718 76.213 59.544 76.219 45.809C76.222 39.153 73.633 32.895 68.93 28.187C64.227 23.478 57.973 20.884 51.32 20.882ZM65.972 56.498C65.348 58.247 62.356 59.844 60.918 60.058C59.628 60.251 57.995 60.331 56.202 59.761C55.115 59.416 53.72 58.955 51.933 58.184C44.42 54.941 39.514 47.377 39.14 46.878C38.766 46.378 36.082 42.818 36.082 39.132C36.082 35.446 38.016 33.635 38.703 32.885C39.389 32.135 40.201 31.948 40.7 31.948C41.199 31.948 41.699 31.953 42.135 31.974C42.595 31.997 43.212 31.8 43.82 33.259C44.444 34.759 45.942 38.444 46.129 38.819C46.316 39.194 46.441 39.631 46.191 40.131C45.941 40.63 45.817 40.943 45.442 41.38C45.067 41.817 44.656 42.356 44.319 42.692C43.944 43.065 43.554 43.471 43.991 44.22C44.428 44.97 45.931 47.422 48.157 49.407C51.017 51.958 53.43 52.749 54.179 53.124C54.928 53.499 55.365 53.436 55.801 52.937C56.238 52.437 57.673 50.75 58.172 50.001C58.671 49.252 59.17 49.376 59.857 49.626C60.543 49.876 64.225 51.687 64.974 52.062C65.723 52.437 66.222 52.624 66.409 52.937C66.596 53.249 66.596 54.749 65.972 56.498Z" fill="#696D70"/>
<path d="M49.312 0C22.078 0 0 22.078 0 49.312C0 76.546 22.078 98.624 49.312 98.624C76.546 98.624 98.624 76.546 98.624 49.312C98.624 22.078 76.546 0 49.312 0ZM51.31 75.779C51.309 75.779 51.311 75.779 51.31 75.779H51.298C46.282 75.777 41.354 74.519 36.977 72.131L21.09 76.299L25.342 60.769C22.719 56.224 21.339 51.068 21.342 45.787C21.347 29.263 34.792 15.82 51.31 15.82C59.327 15.823 66.852 18.944 72.51 24.609C78.168 30.273 81.283 37.803 81.279 45.811C81.272 62.335 67.827 75.779 51.31 75.779Z" fill="#696D70"/>
</g>
<defs>
<clipPath id="clip0_18_12">
<rect width="98.624" height="98.624" fill="white"/>
</clipPath>
</defs>
</svg>
