<svg width="100" height="99" viewBox="0 0 100 99" fill="none" xmlns="http://www.w3.org/2000/svg">
<g clip-path="url(#clip0_37_29)">
<path d="M50.1841 0C22.9501 0 0.87207 22.078 0.87207 49.312C0.87207 76.546 22.9501 98.624 50.1841 98.624C77.4181 98.624 99.4961 76.546 99.4961 49.312C99.4961 22.078 77.4181 0 50.1841 0ZM77.9231 22.919L66.8821 74.771C66.6751 75.789 65.5151 76.288 64.6341 75.736L47.6551 64.475L38.7241 72.786C37.9291 73.466 36.6981 73.135 36.3521 72.147L30.5371 53.807L14.9221 47.403C13.7241 46.857 13.7411 44.949 14.9691 44.472L75.9251 21.235C77.0231 20.809 78.1571 21.765 77.9231 22.919Z" fill="black"/>
<path d="M38.228 66.708L39.22 57.28L66.758 30.362L33.514 52.194L38.228 66.708Z" fill="black"/>
</g>
<defs>
<clipPath id="clip0_37_29">
<rect width="98.624" height="98.624" fill="white" transform="translate(0.87207)"/>
</clipPath>
</defs>
</svg>
