<svg width="46" height="40" viewBox="0 0 46 40" fill="none" xmlns="http://www.w3.org/2000/svg">
<path d="M0.241046 35.4596L8.81221 27.9091C8.96615 27.7734 9.17543 27.6971 9.39348 27.6971C9.61098 27.6971 9.8208 27.7734 9.9753 27.9091L11.3816 29.1497L13.9116 26.92C10.825 24.0587 8.92506 20.1949 8.92506 15.9442C8.92506 7.15257 17.0393 2.44528e-08 27.013 2.44528e-08C36.9861 -0.000482898 45.1003 7.15209 45.1003 15.9437C45.1003 24.7358 36.9861 31.8879 27.0124 31.8879C22.451 31.8879 18.2813 30.3884 15.0961 27.924L12.5425 30.1745L13.7204 31.2132C14.0409 31.4962 14.0409 31.955 13.7199 32.2375L5.14926 39.788C4.99531 39.9237 4.78604 40 4.56799 40C4.34995 40 4.14121 39.9237 3.98672 39.788L0.2405 36.4838C0.0865535 36.3481 -1.33514e-05 36.1637 -1.33514e-05 35.9715C0.000534502 35.7793 0.0870997 35.5953 0.241046 35.4596ZM43.4568 15.9437C43.4568 7.95084 36.0799 1.44829 27.0124 1.44829C17.9449 1.44829 10.5681 7.95084 10.5681 15.9437C10.5681 23.9365 17.9449 30.4391 27.0124 30.4391C36.0799 30.4391 43.4568 23.9365 43.4568 15.9437ZM4.56909 38.2513L11.9766 31.7246L9.39238 29.4452L1.98431 35.9719L4.56909 38.2513Z" fill="black"/>
</svg>
